<?xml version="1.0" standalone="no"?><svg xmlns="http://www.w3.org/2000/svg" viewBox="0 0 1440 320"><path fill="#a2d9ff" fill-opacity="1.2" d="M0,288L40,272C80,256,160,224,240,213.3C320,203,400,213,480,192C560,171,640,117,720,112C800,107,880,149,960,176C1040,203,1120,213,1200,197.3C1280,181,1360,139,1400,117.3L1440,96L1440,320L1400,320C1360,320,1280,320,1200,320C1120,320,1040,320,960,320C880,320,800,320,720,320C640,320,560,320,480,320C400,320,320,320,240,320C160,320,80,320,40,320L0,320Z"></path></svg>