<?xml version="1.0" standalone="no"?><svg xmlns="http://www.w3.org/2000/svg" viewBox="0 0 1440 320"><path fill="#a2d9ff" fill-opacity="1.2" d="M0,64L18.5,58.7C36.9,53,74,43,111,74.7C147.7,107,185,181,222,224C258.5,267,295,277,332,272C369.2,267,406,245,443,218.7C480,192,517,160,554,144C590.8,128,628,128,665,149.3C701.5,171,738,213,775,202.7C812.3,192,849,128,886,85.3C923.1,43,960,21,997,53.3C1033.8,85,1071,171,1108,197.3C1144.6,224,1182,192,1218,165.3C1255.4,139,1292,117,1329,128C1366.2,139,1403,181,1422,202.7L1440,224L1440,320L1421.5,320C1403.1,320,1366,320,1329,320C1292.3,320,1255,320,1218,320C1181.5,320,1145,320,1108,320C1070.8,320,1034,320,997,320C960,320,923,320,886,320C849.2,320,812,320,775,320C738.5,320,702,320,665,320C627.7,320,591,320,554,320C516.9,320,480,320,443,320C406.2,320,369,320,332,320C295.4,320,258,320,222,320C184.6,320,148,320,111,320C73.8,320,37,320,18,320L0,320Z"></path></svg>